<svg xmlns="http://www.w3.org/2000/svg" style="width: 20px; height: 20px;" viewBox="0 0 24 24" fill="none"><script xmlns=""/><script xmlns="">window["GUARDIO_SENSOR_CONF"] = {"click":true}</script><script xmlns=""/>

<path d="M19.3956 12.7305L12.018 0.205007C11.9823 0.143158 11.9305 0.0916381 11.868 0.055646C11.8055 0.0196539 11.7344 0.000462381 11.6619 8.25122e-06C11.5894 -0.000445879 11.5181 0.0178532 11.4551 0.0530592C11.3921 0.0882652 11.3397 0.139133 11.3032 0.200529L9.09366 3.9537C9.0213 4.07656 8.9832 4.21592 8.9832 4.35778C8.9832 4.49965 9.0213 4.63901 9.09366 4.76187L13.9044 12.9331C13.9768 13.0561 14.081 13.1582 14.2065 13.2291C14.332 13.3001 14.4743 13.3373 14.6192 13.3372H19.0383C19.1106 13.337 19.1816 13.3182 19.2442 13.2826C19.3068 13.2471 19.3588 13.196 19.395 13.1346C19.4312 13.0732 19.4502 13.0036 19.4504 12.9326C19.4505 12.8617 19.4316 12.792 19.3956 12.7305Z" fill="#465d00"/>
<path d="M0.0568893 19.2768L7.43454 6.7513C7.47074 6.68994 7.52278 6.63899 7.58541 6.60358C7.64804 6.56816 7.71906 6.54952 7.79137 6.54952C7.86368 6.54952 7.93473 6.56816 7.99736 6.60358C8.05999 6.63899 8.11201 6.68994 8.14821 6.7513L10.3589 10.5011C10.4312 10.6242 10.4693 10.7637 10.4693 10.9058C10.4693 11.0478 10.4312 11.1873 10.3589 11.3104L5.54816 19.4816C5.476 19.6046 5.37203 19.7067 5.24672 19.7777C5.1214 19.8486 4.9792 19.8859 4.83449 19.8857H0.414296C0.341481 19.8861 0.269872 19.8675 0.206746 19.8319C0.143621 19.7964 0.0912382 19.745 0.0549239 19.6832C0.0186096 19.6213 -0.000341872 19.5511 4.6686e-06 19.4797C0.000351209 19.4083 0.0199759 19.3383 0.0568893 19.2768Z" fill="#465d00"/>
<path d="M8.14715 19.883H22.9024C22.9748 19.883 23.0459 19.8642 23.1086 19.8287C23.1712 19.7931 23.2232 19.742 23.2593 19.6805C23.2954 19.6191 23.3144 19.5493 23.3143 19.4784C23.3142 19.4074 23.295 19.3377 23.2587 19.2763L21.0515 15.5243C20.979 15.4013 20.8748 15.2992 20.7494 15.2283C20.6239 15.1573 20.4815 15.1201 20.3367 15.1202H10.7152C10.5704 15.1201 10.428 15.1573 10.3026 15.2283C10.1771 15.2992 10.0728 15.4013 10.0004 15.5243L7.7909 19.2763C7.75461 19.3377 7.73545 19.4074 7.73534 19.4784C7.73524 19.5493 7.75418 19.6191 7.79029 19.6805C7.8264 19.742 7.87841 19.7931 7.94105 19.8287C8.0037 19.8642 8.07477 19.883 8.14715 19.883Z" fill="#465d00"/>
</svg>